<svg xmlns="http://www.w3.org/2000/svg" width="64" height="64" viewBox="0 0 64 64"><path d="M59 24.93C59 16.7 52.3 10 44.07 10H43v16h16zm-13.86-1.07V12.18c6.2.52 11.16 5.48 11.68 11.68z"/><path d="M25.24 28c0 1.48.22 2.91.62 4.27h-5.32l-5.02-9.11-.09-.11c-.05-.06-.09-.12-.15-.17l-.16-.11a.76.76 0 0 0-.18-.09c-.07-.03-.15-.04-.22-.05-.05 0-.09-.03-.13-.03H6.07a1.07 1.07 0 0 0 0 2.15h7.89l5.02 9.11a.98.98 0 0 0 .48.44.3.3 0 0 0 .08.04c.12.04.24.07.37.07h6.77A14.9 14.9 0 0 0 40.12 43C48.32 43 55 36.27 55 28v-1.07H41.18V13h-1.06a14.95 14.95 0 0 0-14.88 15zm13.81-12.81v13.88h13.78a12.82 12.82 0 0 1-12.71 11.78c-4.72 0-8.83-2.59-11.04-6.44h3.61a1.07 1.07 0 0 0 0-2.14H28.1a12.83 12.83 0 0 1 10.95-17.08z"/><path d="M64 4.27H33.07v-3.2a1.07 1.07 0 0 0-2.14 0v3.2H0v44.8h29.43L16.31 62.18a1.08 1.08 0 0 0 0 1.51c.21.21.48.31.76.31.27 0 .54-.1.75-.31l13.11-13.12V60.8a1.07 1.07 0 0 0 2.14 0V50.57l13.11 13.12c.21.21.48.31.75.31.28 0 .55-.1.76-.31.41-.42.41-1.09 0-1.51L34.57 49.07H64zm-2.13 42.66H2.13V6.4h59.74z"/><path d="M8 20a1 1 0 0 0 1-1v-4a1 1 0 0 0-1-1 1 1 0 0 0-1 1v4a1 1 0 0 0 1 1zM12 20a1 1 0 0 0 1-1v-4a1 1 0 0 0-1-1 1 1 0 0 0-1 1v4a1 1 0 0 0 1 1z"/></svg>