<?xml version="1.0" encoding="UTF-8"?>
<svg width="71px" height="57px" viewBox="0 0 71 57" version="1.1" xmlns="http://www.w3.org/2000/svg" xmlns:xlink="http://www.w3.org/1999/xlink">
    <!-- Generator: Sketch 44.1 (41455) - http://www.bohemiancoding.com/sketch -->
    <title>icon</title>
    <desc>Created with Sketch.</desc>
    <defs></defs>
    <g id="Page-1" stroke="none" stroke-width="1" fill="none" fill-rule="evenodd" stroke-linecap="round" stroke-linejoin="round">
        <g id="tablet" transform="translate(-349.000000, -2855.000000)" stroke="#232323" stroke-width="2">
            <g id="Этапы-готовности" transform="translate(29.000000, 2361.000000)">
                <g id="02" transform="translate(240.000000, 463.000000)">
                    <g id="icon" transform="translate(115.500000, 54.500000) rotate(45.000000) translate(-115.500000, -54.500000) translate(90.000000, 27.000000)">
                        <rect id="Rectangle-20" x="2.84217094e-13" y="25" width="12.745098" height="25"></rect>
                        <rect id="Rectangle-20" transform="translate(33.823529, 6.500000) rotate(90.000000) translate(-33.823529, -6.500000) " x="27.4509804" y="-6" width="12.745098" height="25"></rect>
                        <path d="M20.4997805,48.9968948 C17.1469569,48.5342278 14.9174102,48.0873057 12.745098,47.463338 L12.745098,27.4881845 C15.1637273,26.7934655 18.0996269,23.7638595 20.8278576,23.1458805 M29.4922901,24.9912904 L45.2003661,25.0582292 C47.9420979,25.0582292 49.5320256,26.4884624 49.4378981,28.0696062 C49.3437706,29.6507499 47.217254,31.2098943 47.217254,31.2098943 C47.217254,31.2098943 50.497809,32.2125961 50.497809,34.4904492 C50.497809,36.7683023 47.5163399,37.4719183 47.5163399,37.4719183 C47.5163399,37.4719183 50.5314281,38.23321 50.5314281,40.4870065 C50.5314281,42.7408031 47.3582594,43.6601752 47.3582594,43.6601752 C47.3582594,43.6601752 48.9739813,44.4200683 48.9739813,46.7234815 C48.9739813,49.0268946 46.3891183,50 46.3891183,50" id="Rectangle-20"></path>
                        <path d="M32.2823662,28.85931 L41.445785,31.0286299 C43.4415317,31.6411689 45.1241128,32.6266377 45.1254334,34.6074538 C45.1267541,36.5882698 43.4805017,38.027395 41.4504511,38.027395 L38.9887374,38.027395 C33.5792872,38.027395 24.9802388,36.7993667 20.6156303,35.527395 L20.6156303,15.527395 C25.353367,14.1466831 32.3350435,12.972605 32.3350435,12.972605" id="Rectangle-20" transform="translate(32.870532, 25.500000) rotate(90.000000) translate(-32.870532, -25.500000) "></path>
                        <path d="M4.90196078,45.5 L7.84313725,45.5" id="Path-25"></path>
                        <path d="M21,46.9462433 C21,45.3190781 22.3201148,44 23.9411765,44 L23.9411765,44 C25.5655434,44 26.8823529,45.3073254 26.8823529,46.9462433 L26.8823529,52.000385 C26.8823529,53.1047419 25.9889501,54 24.8908566,54 L22.9914964,54 C21.8916233,54 21,53.1125667 21,52.000385 L21,46.9462433 Z" id="Rectangle-21"></path>
                        <path d="M27.4509804,46.9462433 C27.4509804,45.3190781 28.7710952,44 30.3921569,44 L30.3921569,44 C32.0165238,44 33.3333333,45.3073254 33.3333333,46.9462433 L33.3333333,52.000385 C33.3333333,53.1047419 32.4399305,54 31.341837,54 L29.4424768,54 C28.3426037,54 27.4509804,53.1125667 27.4509804,52.000385 L27.4509804,46.9462433 Z" id="Rectangle-21"></path>
                        <path d="M33.3333333,46.9462433 C33.3333333,45.3190781 34.6534482,44 36.2745098,44 L36.2745098,44 C37.8988767,44 39.2156863,45.3073254 39.2156863,46.9462433 L39.2156863,52.000385 C39.2156863,53.1047419 38.3222835,54 37.2241899,54 L35.3248297,54 C34.2249566,54 33.3333333,53.1125667 33.3333333,52.000385 L33.3333333,46.9462433 Z" id="Rectangle-21"></path>
                        <path d="M39.2156863,46.9462433 C39.2156863,45.3190781 40.5358011,44 42.1568627,44 L42.1568627,44 C43.7812297,44 45.0980392,45.3073254 45.0980392,46.9462433 L45.0980392,52.000385 C45.0980392,53.1047419 44.2046364,54 43.1065428,54 L41.2071826,54 C40.1073096,54 39.2156863,53.1125667 39.2156863,52.000385 L39.2156863,46.9462433 Z" id="Rectangle-21"></path>
                    </g>
                </g>
            </g>
        </g>
    </g>
</svg>