<svg xmlns="http://www.w3.org/2000/svg" width="65" height="59" viewBox="0 0 65 59"><path d="M62.11 34.3a8.71 8.71 0 0 0-2.9-1.86l-4.38-1.84-3.07-2.03v-1.03a8.4 8.4 0 0 0 4.39-6.1 3.97 3.97 0 0 0 2.38-6.59v-3.79C58.53 4.96 53.59 0 47.51 0h-.83a11 11 0 0 0-10.64 8.21c-.97-.26-1.98-.4-3.02-.4h-.88c-1.09 0-2.16.16-3.16.44A11.03 11.03 0 0 0 18.32 0h-.83A11.05 11.05 0 0 0 6.47 11.06v3.79a3.97 3.97 0 0 0 2.38 6.59 8.4 8.4 0 0 0 4.39 6.1v1.03l-3.07 2.03-4.38 1.84c-.26.09-1.59.61-2.9 1.86A9.43 9.43 0 0 0 0 41.39v6.27c0 .57.46 1.03 1.03 1.03h12.88c-.19.8-.3 1.69-.3 2.68v6.6c0 .57.46 1.03 1.03 1.03h24.11a1.03 1.03 0 1 0 0-2.06h-2.2l-1.24-7.71.49-1.3.73.54a1.04 1.04 0 0 0 .85.17 1 1 0 0 0 .68-.55l2.79-5.75 3.72 1.56.06.02c.05.02 4.71 1.66 4.71 7.45v5.57h-4.26v-5.87a1.03 1.03 0 0 0-2.05 0v5.87h-1.09c-.56 0-1.02.46-1.02 1.03 0 .57.46 1.03 1.02 1.03h8.42c.57 0 1.03-.47 1.03-1.04v-6.59c0-.99-.11-1.88-.3-2.68h12.88c.57 0 1.03-.47 1.03-1.04v-6.26c0-3.6-1.57-5.84-2.89-7.09zm-14.2-7.87h-1.59c-.22 0-.44-.02-.66-.04v-.18c0-1.07-.41-2.05-1.09-2.79v-4.01c0-1.84-.42-3.57-1.18-5.11 2.25-.55 4.89-1.6 6.93-3.6.64 1.36 1.82 3.13 3.88 3.91v5.5a6.31 6.31 0 0 1-6.29 6.32zm1.8 1.86v2.1l-2.64 2.75-2.55-2.5v-1.58c.2-.21.37-.43.52-.67.43.06.85.1 1.28.1h1.59a8.2 8.2 0 0 0 1.8-.2zm-6.1-2.08c0 .52-.19 1-.51 1.36-.19.08-.35.22-.47.39-.14.09-.29.16-.45.21v-3.91a2.05 2.05 0 0 1 1.43 1.95zm13.9-8.69c0 .82-.52 1.52-1.25 1.78v-3.56c.73.26 1.25.96 1.25 1.78zM38 8.82a8.97 8.97 0 0 1 8.68-6.76h.83a9 9 0 0 1 8.97 9v2.6l-.25-.05a1.03 1.03 0 0 0-.77-.76c-2.88-.66-3.76-4.34-3.77-4.38-.09-.39-.4-.7-.79-.78-.4-.08-.8.08-1.04.41-1.92 2.67-5.13 3.83-7.61 4.34a11.63 11.63 0 0 0-4.29-3.51l.04-.11zm-5.86 1.05h.88c5.24 0 9.5 4.28 9.5 9.54v2.81c-.12-.03-.24-.06-.36-.07l-.01-.04-.02-.06-.01-.05-.02-.04-.02-.05-.02-.04-.03-.05-.02-.04a.14.14 0 0 1-.03-.04.14.14 0 0 1-.03-.04l-.03-.03-.03-.04-.03-.03a.18.18 0 0 0-.05-.04l-.03-.03-.04-.03-.04-.02-.05-.03-.04-.03-.05-.02-.05-.02-.04-.01-.07-.02-.02-.01c-3.06-.7-4-4.61-4.01-4.65-.09-.39-.4-.7-.8-.78-.39-.08-.8.08-1.03.41-3.57 4.95-11.36 5-11.48 5h-.13l-.08.02h-.03l-.07.02-.04.01-.05.03-.05.02a.08.08 0 0 0-.04.02l-.05.03a.08.08 0 0 0-.04.02l-.04.03-.04.03a.14.14 0 0 1-.04.03.14.14 0 0 0-.03.04l-.03.03-.04.04a.14.14 0 0 0-.03.04.14.14 0 0 0-.03.04l-.02.04-.03.04-.02.05-.02.04-.02.05-.02.05-.01.04-.01.06v.01c-.14.01-.27.04-.41.07v-2.81a9.54 9.54 0 0 1 9.5-9.54zm.42 32.88l-2.75-2.69v-2.57c.63.14 1.28.22 1.96.22h1.67c.65 0 1.28-.07 1.9-.21h.05v2.3zm1.52 3.91l-.54 1.43h-1.91l-.6-1.45 1.51-1.12zm-15.31-8.43h-1.74l-.48-1.29 1.39-1.03 1.37 1.02zm.13 4.09a10.33 10.33 0 0 0-2.3 1.65l.59-3.68h1.39zm-.97-9.18l-2.64-2.74v-2.11c.58.13 1.18.2 1.8.2h1.59c.49 0 .98-.05 1.46-.13.1.16.22.32.34.47v1.82zm4.29-1.32a1 1 0 0 0 .3-.86l.9.6c.1.31.22.62.35.91l-1.85 3.82-2.43-1.79zm-.63-5.61c0-.91.61-1.69 1.44-1.95v3.91a2.06 2.06 0 0 1-1.44-1.96zm-.58 11.97l.68.51a1.06 1.06 0 0 0 .86.17c.29-.08.54-.28.68-.55l1.82-3.77c.74.9 1.67 1.65 2.71 2.19v1.08l-3.29 2.18-.13.04-3.49 1.46-.34-2.1zm6.78 2.07c-.08.35.01.73.28.99L31 44.11l-2.67 1.97-2.27-4.68zm5.65-4.6h-1.67a6.7 6.7 0 0 1-6.69-6.71v-5.61c2.2-.16 7.41-.9 10.92-4.4.66 1.44 1.91 3.35 4.12 4.18v5.83a6.7 6.7 0 0 1-6.68 6.71zM8.74 19.3a1.89 1.89 0 0 1 0-3.56zm1.05-6.48h-.02c-.48 0-.89.34-1 .79l-.25.05v-2.6a9 9 0 0 1 8.97-9h.83a8.97 8.97 0 0 1 8.74 6.93 11.6 11.6 0 0 0-3.54 2.71 7.28 7.28 0 0 1-1.6-2.98 1.03 1.03 0 1 0-1.83-.38c-3.2 4.44-10.19 4.48-10.29 4.48zm1.01 7.29v-5.27c2.02-.16 6.6-.85 9.76-3.91.36.78.92 1.68 1.72 2.44a11.6 11.6 0 0 0-1.69 6.04v4.06a4.11 4.11 0 0 0-1.05 2.74v.15a6.1 6.1 0 0 1-.86.07h-1.59a6.31 6.31 0 0 1-6.29-6.32zm2.46 10.92c.04.18.12.35.26.5l2.86 2.98-2.42 1.78-2.1-4.34zm.83 15.6H8.04v-5.52a1.03 1.03 0 1 0-2.05 0v5.52H2.05v-5.24a7.17 7.17 0 0 1 4.43-7.01l.07-.03 3.48-1.46 2.63 5.42c.13.27.38.47.67.55a1.04 1.04 0 0 0 .86-.17l.64-.48.43 1.16zm14.56 10.31h-6.68v-5.87a1.03 1.03 0 1 0-2.05 0v5.87h-4.26v-5.57c0-5.75 4.52-7.38 4.71-7.45l.06-.02 3.79-1.59 2.8 5.78a1.02 1.02 0 0 0 .93.58 1 1 0 0 0 .6-.2l.78-.57.56 1.35zm2.08 0l1.09-6.79h1.56l1.09 6.79zm6.02-10.86l-.81-.6-1.84-1.36 3.06-3.19a.95.95 0 0 0 .27-.58l1.59 1.05zm7.4-4.59l-3.44-1.44-3.26-2.16h-.01v-1.16a8.66 8.66 0 0 0 2.58-2.03l1.75 3.61c.14.27.39.47.68.55a1.06 1.06 0 0 0 .86-.17l.68-.51.5 1.21zm-1.07-5.2l-1.74-3.6c.19-.42.36-.85.49-1.3l.65-.43a1 1 0 0 0 .3.86l2.73 2.68zm5.29 7.64c-.84-.79-1.68-1.3-2.28-1.61l.33-2.03h1.39l.59 3.68-.03-.04zm-.4-5.7h-1.74l-.54-1.3 1.37-1.02 1.39 1.03zm.65-3.72l2.86-2.98c.14-.15.22-.32.26-.51l1.4.93-2.1 4.34zm10.39 6.6a1.03 1.03 0 0 0-2.05 0v5.52h-6.05l-1.17-7.26.43-1.16.64.48a1.04 1.04 0 0 0 .86.17c.29-.08.54-.28.67-.55l2.63-5.42 3.48 1.46.07.03a7.2 7.2 0 0 1 4.43 7.01v5.24h-3.94z"/></svg>