<svg xmlns="http://www.w3.org/2000/svg" width="66" height="62" viewBox="0 0 66 62"><path d="M56.57 23.45A23.49 23.49 0 0 0 33 0 23.48 23.48 0 0 0 9.43 23.4v.05A9.97 9.97 0 0 0 0 33.34v1.17c0 5.5 4.48 9.94 10.02 9.94h.53l4.18 6.61a15.8 15.8 0 0 0 13.5 7.43h.82a4.71 4.71 0 0 0 9.25-1.17 4.71 4.71 0 0 0-9.25-1.17h-.82c-4.72 0-9.02-2.4-11.49-6.37l-3.42-5.33h.82c1.3 0 2.36-1.05 2.36-2.34V25.74a2.35 2.35 0 0 0-2.36-2.34h-2.35A21.12 21.12 0 0 1 33 2.34 21.12 21.12 0 0 1 54.21 23.4h-2.35a2.35 2.35 0 0 0-2.36 2.34v16.37a2.35 2.35 0 0 0 2.36 2.34h4.12A9.97 9.97 0 0 0 66 34.51v-1.17a9.97 9.97 0 0 0-9.43-9.89zM33.59 54.98c1.3 0 2.36 1.05 2.36 2.34a2.35 2.35 0 0 1-2.36 2.34 2.35 2.35 0 0 1-2.36-2.34 2.35 2.35 0 0 1 2.36-2.34zM14.14 25.74v16.37h-4.12a7.62 7.62 0 0 1-7.66-7.6v-1.17c0-4.21 3.42-7.6 7.66-7.6zm49.5 8.77c0 4.21-3.42 7.6-7.66 7.6h-4.12V25.74h4.12a7.62 7.62 0 0 1 7.66 7.6z"/><path d="M43.48 8.78c-.11-.06-.27-.18-.43-.3-.17-.12-.33-.24-.44-.3-.49-.36-1.19-.18-1.47.42-.27.6-.16 1.26.38 1.62.11.06.28.18.44.3.16.12.33.24.49.3.16.12.38.18.54.18.38 0 .71-.18.93-.6.27-.54.11-1.26-.44-1.62zM31.79 5c-4.84 0-9.39 2.21-12.52 6.03-.4.48-.35 1.25.11 1.67.23.18.46.3.74.3.34 0 .63-.12.85-.42a14.1 14.1 0 0 1 10.82-5.19c1.02 0 2.05.12 3.07.36.63.12 1.19-.3 1.37-.9.17-.6-.29-1.25-.86-1.43A14.6 14.6 0 0 0 31.79 5z"/></svg>