<svg xmlns="http://www.w3.org/2000/svg" width="60" height="57" viewBox="0 0 60 57"><path d="M53.44 19.22h-1.62A7.56 7.56 0 0 0 46.88 6a7.55 7.55 0 1 0-4.95 13.22h-1.62a6.6 6.6 0 0 0-6.56 6.61v4.73h-7.5v-4.73a6.6 6.6 0 0 0-6.56-6.61h-1.62A7.56 7.56 0 0 0 13.13 6a7.55 7.55 0 1 0-4.95 13.22H6.56A6.6 6.6 0 0 0 0 25.83v13.23c0 .52.42.94.94.94h4.69v16.06c0 .52.41.94.93.94h13.13c.51 0 .94-.42.94-.94V37.14c.78.6 1.75.97 2.81.97h13.12c1.06 0 2.03-.37 2.82-.97v18.92c0 .52.42.94.93.94h13.13c.52 0 .94-.42.94-.94V40h4.68c.52 0 .94-.42.94-.94V25.83a6.6 6.6 0 0 0-6.56-6.61zM7.5 13.56a5.65 5.65 0 0 1 5.63-5.67c3.1 0 5.62 2.54 5.62 5.67a5.65 5.65 0 0 1-5.62 5.66 5.65 5.65 0 0 1-5.63-5.66zm21.56 22.66h-5.62a2.82 2.82 0 0 1-2.81-2.83v-7.56h-1.88v29.28h-4.69v-17h-1.87v17H7.5V25.83H5.63v12.28H1.88V25.83a4.7 4.7 0 0 1 4.68-4.72h13.13a4.72 4.72 0 0 1 4.69 4.72v5.67c0 .52.42.94.93.94h3.75zm12.19-22.66a5.65 5.65 0 0 1 5.63-5.67c3.1 0 5.62 2.54 5.62 5.67a5.65 5.65 0 0 1-5.62 5.66 5.65 5.65 0 0 1-5.63-5.66zm16.88 24.55h-3.75V25.83H52.5v29.28h-4.69v-17h-1.87v17h-4.69V25.83h-1.87v7.56a2.83 2.83 0 0 1-2.82 2.83h-5.62v-3.78h3.75c.52 0 .94-.42.94-.94v-5.67a4.7 4.7 0 0 1 4.68-4.72h13.13a4.72 4.72 0 0 1 4.69 4.72z"/><path d="M42.73 2.8L39.95 0l-1.31 1.32 1.2 1.21h-7.06c-.24 0-.48.1-.65.27L30 4.94 27.87 2.8a.93.93 0 0 0-.65-.27h-7.06l1.2-1.21L20.05 0l-2.78 2.8a.94.94 0 0 0 0 1.32l2.79 2.8 1.32-1.32-1.2-1.2h6.65l1.86 1.86-1.86 1.87h-4.25V10h4.64c.24 0 .48-.1.65-.27L30 7.58l2.13 2.15c.17.17.41.27.65.27h4.65V8.13h-4.26l-1.86-1.87 1.86-1.86h6.65l-1.2 1.2 1.32 1.32 2.79-2.8a.94.94 0 0 0 0-1.32z"/></svg>