<?xml version="1.0" encoding="utf-8"?>
<!-- Generator: Adobe Illustrator 21.0.2, SVG Export Plug-In . SVG Version: 6.00 Build 0)  -->
<svg version="1.1" id="Слой_1" xmlns="http://www.w3.org/2000/svg" xmlns:xlink="http://www.w3.org/1999/xlink" x="0px" y="0px"
	 viewBox="0 0 984 374" style="enable-background:new 0 0 984 374;" xml:space="preserve">
<style type="text/css">
	.st0{fill:#232323;}
	.st1{font-family:'Lato-Regular';}
	.st2{font-size:14px;}
	.st3{fill:none;stroke:#ECECEC;}
	.st4{font-family:'Lato-Light';}
	.st5{fill:none;stroke:#FFBF00;stroke-width:6;stroke-linecap:round;stroke-linejoin:round;}
	.st6{fill:none;stroke:#6A6A6A;stroke-width:6;stroke-linecap:round;stroke-linejoin:round;}
	.st7{fill:none;stroke:#EE7D31;stroke-width:6;stroke-linecap:round;stroke-linejoin:round;}
	.st8{fill:none;stroke:#4990E2;stroke-width:6;stroke-linecap:round;stroke-linejoin:round;}
</style>
<title>graphgic</title>
<desc>Created with Sketch.</desc>
<text transform="matrix(1 0 0 1 86.76 373)" class="st0 st1 st2">2015</text>
<text transform="matrix(1 0 0 1 477.76 373)" class="st0 st1 st2">2016</text>
<text transform="matrix(1 0 0 1 867.76 373)" class="st0 st1 st2">2017</text>
<path id="line" class="st3" d="M19,334h946"/>
<path id="line_1_" class="st3" d="M0,293.5h984"/>
<path id="line_2_" class="st3" d="M55,252h874"/>
<path id="line_3_" class="st3" d="M0,210.5h984"/>
<path id="line_4_" class="st3" d="M55,170h874"/>
<path id="line_5_" class="st3" d="M0,129.5h984"/>
<path id="line_6_" class="st3" d="M63,88h858"/>
<path id="line_7_" class="st3" d="M0,47.5h984"/>
<path id="line_8_" class="st3" d="M63,6h858"/>
<text transform="matrix(1 0 0 1 0 10)" class="st0 st4 st2">100 000</text>
<text transform="matrix(1 0 0 1 0 93)" class="st0 st4 st2">75 000</text>
<text transform="matrix(1 0 0 1 0 175)" class="st0 st4 st2">50 000</text>
<text transform="matrix(1 0 0 1 0 256)" class="st0 st4 st2">25 000</text>
<text transform="matrix(1 0 0 1 0 338)" class="st0 st4 st2">0</text>
<text transform="matrix(1 0 0 1 931.479 10)" class="st0 st4 st2">100 000</text>
<text transform="matrix(1 0 0 1 939.599 93)" class="st0 st4 st2">75 000</text>
<text transform="matrix(1 0 0 1 939.599 175)" class="st0 st4 st2">50 000</text>
<text transform="matrix(1 0 0 1 939.599 256)" class="st0 st4 st2">25 000</text>
<text transform="matrix(1 0 0 1 975.88 338)" class="st0 st4 st2">0</text>
<polyline id="path" class="st5" points="104.8,335.9 521,328.9 656,326.4 707.1,324.3 772.7,326.4 834,322 888.5,322 "/>
<polyline id="path_1_" class="st6" points="106.3,334.9 544.1,324.5 662.4,313.6 742,313.6 824.8,307.9 888.5,307.9 "/>
<polyline id="path_2_" class="st7" points="103.8,335.2 361,322.7 508.8,310.1 584.7,310.1 670.6,299.9 775.3,294.4 829.7,283.5 
	888.4,283.5 "/>
<polyline id="path_3_" class="st8" points="103.4,335 199.7,329.2 275.7,320 332.9,305.2 440.8,287.1 573,212.7 635.9,187.9 
	723.7,107.9 812.3,53.8 888.1,28.8 "/>
</svg>
