<svg xmlns="http://www.w3.org/2000/svg" width="27" height="15" viewBox="0 0 27 15"><path fill="#fff" fill-opacity=".7" d="M22.52 8.9c.83.8 1.7 1.56 2.44 2.44.33.39.64.8.88 1.25.34.65.03 1.36-.55 1.4h-3.64c-.94.07-1.69-.3-2.32-.94-.51-.51-.97-1.05-1.46-1.57-.2-.22-.41-.42-.65-.58-.5-.32-.93-.22-1.22.29-.29.52-.35 1.1-.38 1.68-.04.85-.3 1.08-1.16 1.12a9.43 9.43 0 0 1-5.21-1.11 11.6 11.6 0 0 1-3.51-3.25 43.28 43.28 0 0 1-4.61-8.14c-.3-.64-.08-.99.63-1C2.95.47 4.14.47 5.33.49c.48 0 .8.28.99.73a22.11 22.11 0 0 0 2.41 4.43c.27.37.54.74.92.99.42.29.74.2.94-.27a3 3 0 0 0 .21-.93c.09-1.09.11-2.17-.06-3.26-.1-.67-.48-1.11-1.17-1.24-.35-.07-.29-.19-.12-.39.29-.34.56-.55 1.11-.55h4.12c.65.13.79.41.88 1.06v4.52c0 .25.13 1 .58 1.16.37.12.61-.17.83-.4a14.19 14.19 0 0 0 2.31-3.52c.28-.56.52-1.14.75-1.72.18-.43.45-.64.93-.63l3.97.01c.11 0 .23 0 .35.02.66.11.85.39.64 1.04-.33 1.01-.96 1.85-1.58 2.7-.66.91-1.36 1.78-2.02 2.69-.6.83-.55 1.25.2 1.97z"/></svg>